# xmcd
#
# Track frame offsets: 
#        182
#        27292
#        46717
#        66672
#        84517
#        113245
#        134792
#        153475
#        176582
#        193682
#
# Disc length: 3016 seconds
#
# Revision: 0
# Processed by: cddbd v1.5.2PL0 Copyright (c) Steve Scherf et al.
# Submitted via: ExactAudioCopy v0.99pb4
#
DISCID=8c0bc60a
DTITLE=Robert Cray - In Store Play Sampler
DYEAR=1995
DGENRE=Blues
TTITLE0=Moan
TTITLE1=Right Next Door
TTITLE2=Consequences
TTITLE3=Don't You Even Care
TTITLE4=Enough For Me
TTITLE5=Never Mattered Much
TTITLE6=Smoking Gun
TTITLE7=I Shiver
TTITLE8=Don't Be Afraid Of The Dark
TTITLE9=I Was Warned
EXTD=
EXTT0=
EXTT1=
EXTT2=
EXTT3=
EXTT4=
EXTT5=
EXTT6=
EXTT7=
EXTT8=
EXTT9=
PLAYORDER=
